<svg xmlns="http://www.w3.org/2000/svg" width="375" viewBox="0 0 375 375" height="375" version="1.0"><defs><clipPath id="a"><path d="M 117.351562 140.257812 L 148.851562 140.257812 L 148.851562 171.757812 L 117.351562 171.757812 Z M 117.351562 140.257812"/></clipPath><clipPath id="b"><path d="M 189.714844 140.257812 L 221.214844 140.257812 L 221.214844 171.757812 L 189.714844 171.757812 Z M 189.714844 140.257812"/></clipPath><clipPath id="c"><path d="M 225.894531 140.257812 L 257.394531 140.257812 L 257.394531 171.757812 L 225.894531 171.757812 Z M 225.894531 140.257812"/></clipPath><clipPath id="d"><path d="M 153.53125 140.257812 L 185.03125 140.257812 L 185.03125 171.757812 L 153.53125 171.757812 Z M 153.53125 140.257812"/></clipPath></defs><path fill="#FFF" d="M-37.5 -37.5H412.5V412.5H-37.5z"/><path fill="#FFF" d="M-37.5 -37.5H412.5V412.5H-37.5z"/><path d="M-37.5 -37.5H412.5V412.5H-37.5z"/><g clip-path="url(#a)"><path fill="#EC6B25" d="M 141.144531 158.261719 L 135.355469 158.261719 L 135.355469 164.050781 C 135.355469 165.292969 134.347656 166.300781 133.105469 166.300781 C 131.863281 166.300781 130.855469 165.292969 130.855469 164.050781 L 130.855469 158.261719 L 125.066406 158.261719 C 123.824219 158.261719 122.816406 157.253906 122.816406 156.011719 C 122.816406 154.769531 123.824219 153.761719 125.066406 153.761719 L 130.855469 153.761719 L 130.855469 147.976562 C 130.855469 146.730469 131.863281 145.722656 133.105469 145.722656 C 134.347656 145.722656 135.355469 146.730469 135.355469 147.976562 L 135.355469 153.761719 L 141.144531 153.761719 C 142.386719 153.761719 143.394531 154.769531 143.394531 156.011719 C 143.394531 157.253906 142.386719 158.261719 141.144531 158.261719 Z M 143.394531 140.257812 L 122.816406 140.257812 C 119.796875 140.257812 117.351562 142.707031 117.351562 145.722656 L 117.351562 166.300781 C 117.351562 169.320312 119.796875 171.765625 122.816406 171.765625 L 143.394531 171.765625 C 146.414062 171.765625 148.859375 169.320312 148.859375 166.300781 L 148.859375 145.722656 C 148.859375 142.707031 146.414062 140.257812 143.394531 140.257812"/></g><g clip-path="url(#b)"><path fill="#EC6B25" d="M 212.742188 160.105469 C 213.621094 160.984375 213.621094 162.410156 212.742188 163.285156 C 212.304688 163.726562 211.726562 163.949219 211.152344 163.949219 C 210.574219 163.949219 210 163.726562 209.5625 163.285156 L 205.46875 159.195312 L 201.375 163.285156 C 200.9375 163.726562 200.359375 163.949219 199.785156 163.949219 C 199.207031 163.949219 198.632812 163.726562 198.191406 163.285156 C 197.3125 162.410156 197.3125 160.984375 198.191406 160.105469 L 202.285156 156.011719 L 198.191406 151.921875 C 197.3125 151.039062 197.3125 149.613281 198.191406 148.738281 C 199.070312 147.859375 200.496094 147.859375 201.375 148.738281 L 205.46875 152.832031 L 209.5625 148.738281 C 210.4375 147.859375 211.863281 147.859375 212.742188 148.738281 C 213.621094 149.613281 213.621094 151.039062 212.742188 151.921875 L 208.652344 156.011719 Z M 215.757812 140.257812 L 195.179688 140.257812 C 192.160156 140.257812 189.714844 142.707031 189.714844 145.722656 L 189.714844 166.300781 C 189.714844 169.320312 192.160156 171.765625 195.179688 171.765625 L 215.757812 171.765625 C 218.777344 171.765625 221.222656 169.320312 221.222656 166.300781 L 221.222656 145.722656 C 221.222656 142.707031 218.777344 140.257812 215.757812 140.257812"/></g><g clip-path="url(#c)"><path fill="#FFF" d="M 249.6875 158.261719 L 233.609375 158.261719 C 232.367188 158.261719 231.359375 157.253906 231.359375 156.011719 C 231.359375 154.769531 232.367188 153.761719 233.609375 153.761719 L 249.6875 153.761719 C 250.929688 153.761719 251.9375 154.769531 251.9375 156.011719 C 251.9375 157.253906 250.929688 158.261719 249.6875 158.261719 Z M 243.238281 165.640625 C 242.820312 166.058594 242.242188 166.300781 241.648438 166.300781 C 241.5 166.300781 241.355469 166.28125 241.210938 166.257812 C 241.0625 166.226562 240.921875 166.1875 240.789062 166.128906 C 240.652344 166.070312 240.523438 166 240.402344 165.925781 C 240.277344 165.839844 240.164062 165.742188 240.058594 165.640625 C 239.636719 165.222656 239.398438 164.644531 239.398438 164.050781 C 239.398438 163.460938 239.636719 162.875 240.058594 162.457031 C 240.164062 162.355469 240.277344 162.265625 240.402344 162.179688 C 240.523438 162.097656 240.652344 162.027344 240.789062 161.972656 C 240.921875 161.917969 241.0625 161.871094 241.210938 161.847656 C 241.5 161.78125 241.796875 161.78125 242.085938 161.847656 C 242.234375 161.871094 242.375 161.917969 242.511719 161.972656 C 242.644531 162.027344 242.773438 162.097656 242.898438 162.179688 C 243.027344 162.265625 243.132812 162.355469 243.242188 162.457031 C 243.664062 162.875 243.898438 163.460938 243.898438 164.050781 C 243.898438 164.644531 243.664062 165.222656 243.238281 165.640625 Z M 240.054688 146.382812 C 240.164062 146.277344 240.277344 146.1875 240.402344 146.105469 C 240.523438 146.019531 240.652344 145.949219 240.789062 145.898438 C 240.921875 145.839844 241.0625 145.796875 241.210938 145.769531 C 241.9375 145.621094 242.714844 145.859375 243.238281 146.382812 C 243.664062 146.796875 243.898438 147.382812 243.898438 147.976562 C 243.898438 148.566406 243.664062 149.148438 243.238281 149.5625 C 243.132812 149.667969 243.019531 149.761719 242.898438 149.847656 C 242.773438 149.925781 242.644531 149.996094 242.511719 150.050781 C 242.375 150.109375 242.234375 150.148438 242.085938 150.179688 C 241.945312 150.207031 241.796875 150.226562 241.648438 150.226562 C 241.058594 150.226562 240.480469 149.980469 240.054688 149.5625 C 239.636719 149.148438 239.398438 148.566406 239.398438 147.976562 C 239.398438 147.382812 239.636719 146.796875 240.054688 146.382812 Z M 251.9375 140.257812 L 231.359375 140.257812 C 228.339844 140.257812 225.894531 142.707031 225.894531 145.722656 L 225.894531 166.300781 C 225.894531 169.320312 228.339844 171.765625 231.359375 171.765625 L 251.9375 171.765625 C 254.957031 171.765625 257.402344 169.320312 257.402344 166.300781 L 257.402344 145.722656 C 257.402344 142.707031 254.957031 140.257812 251.9375 140.257812"/></g><g clip-path="url(#d)"><path fill="#FFF" d="M 177.324219 158.261719 L 161.246094 158.261719 C 160.003906 158.261719 159 157.253906 159 156.011719 C 159 154.769531 160.003906 153.761719 161.246094 153.761719 L 177.324219 153.761719 C 178.566406 153.761719 179.574219 154.769531 179.574219 156.011719 C 179.574219 157.253906 178.566406 158.261719 177.324219 158.261719 Z M 179.574219 140.257812 L 159 140.257812 C 155.976562 140.257812 153.53125 142.707031 153.53125 145.722656 L 153.53125 166.300781 C 153.53125 169.320312 155.976562 171.765625 159 171.765625 L 179.574219 171.765625 C 182.59375 171.765625 185.042969 169.320312 185.042969 166.300781 L 185.042969 145.722656 C 185.042969 142.707031 182.59375 140.257812 179.574219 140.257812"/></g><g fill="#FFF"><g><g><path d="M 2.21875 -20.640625 L 20.0625 -20.640625 L 20.0625 -15.6875 L 8.84375 -15.6875 L 8.84375 -12.84375 L 18.453125 -12.84375 L 18.453125 -8.09375 L 8.84375 -8.09375 L 8.84375 -4.953125 L 20.28125 -4.953125 L 20.28125 0 L 2.21875 0 Z M 2.21875 -20.640625" transform="translate(73.315 209.114)"/></g></g></g><g fill="#FFF"><g><g><path d="M 6 0 L 0 -15.84375 L 6.421875 -15.84375 L 9.328125 -5.96875 L 9.546875 -5.96875 L 12.453125 -15.84375 L 18.328125 -15.84375 L 12.265625 0 Z M 6 0" transform="translate(94.975 209.114)"/></g></g></g><g fill="#FFF"><g><g><path d="M 9.984375 -16.203125 C 12.890625 -16.203125 15.109375 -15.519531 16.640625 -14.15625 C 18.171875 -12.800781 18.9375 -10.722656 18.9375 -7.921875 L 18.9375 -6.90625 L 7.046875 -6.90625 C 7.046875 -5.757812 7.300781 -4.894531 7.8125 -4.3125 C 8.320312 -3.738281 9.128906 -3.453125 10.234375 -3.453125 C 11.234375 -3.453125 11.96875 -3.660156 12.4375 -4.078125 C 12.90625 -4.492188 13.140625 -5.054688 13.140625 -5.765625 L 18.9375 -5.765625 C 18.9375 -3.835938 18.203125 -2.332031 16.734375 -1.25 C 15.273438 -0.175781 13.144531 0.359375 10.34375 0.359375 C 7.40625 0.359375 5.125 -0.320312 3.5 -1.6875 C 1.882812 -3.0625 1.078125 -5.140625 1.078125 -7.921875 C 1.078125 -10.640625 1.863281 -12.695312 3.4375 -14.09375 C 5.019531 -15.5 7.203125 -16.203125 9.984375 -16.203125 Z M 10.234375 -12.390625 C 8.347656 -12.390625 7.296875 -11.5 7.078125 -9.71875 L 12.90625 -9.71875 C 12.90625 -10.539062 12.664062 -11.191406 12.1875 -11.671875 C 11.71875 -12.148438 11.066406 -12.390625 10.234375 -12.390625 Z M 10.234375 -12.390625" transform="translate(113.305 209.114)"/></g></g></g><g fill="#FFF"><g><g><path d="M 12.71875 -16.203125 C 14.5625 -16.203125 15.941406 -15.691406 16.859375 -14.671875 C 17.773438 -13.648438 18.234375 -12.179688 18.234375 -10.265625 L 18.234375 0 L 12.265625 0 L 12.265625 -9.546875 C 12.265625 -10.222656 12.085938 -10.765625 11.734375 -11.171875 C 11.390625 -11.585938 10.898438 -11.796875 10.265625 -11.796875 C 9.523438 -11.796875 8.921875 -11.550781 8.453125 -11.0625 C 7.992188 -10.582031 7.765625 -9.992188 7.765625 -9.296875 L 7.765625 0 L 1.796875 0 L 1.796875 -15.84375 L 6.6875 -15.84375 L 7.078125 -13.4375 C 7.703125 -14.28125 8.519531 -14.953125 9.53125 -15.453125 C 10.539062 -15.953125 11.601562 -16.203125 12.71875 -16.203125 Z M 12.71875 -16.203125" transform="translate(133.315 209.114)"/></g></g></g><g fill="#FFF"><g><g><path d="M 16.140625 0 L 16.140625 -7.828125 L 8.84375 -7.828125 L 8.84375 0 L 2.21875 0 L 2.21875 -20.640625 L 8.84375 -20.640625 L 8.84375 -13.109375 L 16.140625 -13.109375 L 16.140625 -20.640625 L 22.765625 -20.640625 L 22.765625 0 Z M 16.140625 0" transform="translate(163.315 209.114)"/></g></g></g><g fill="#FFF"><g><g><path d="M 13.296875 0 L 12.90625 -2.40625 C 12.28125 -1.539062 11.460938 -0.863281 10.453125 -0.375 C 9.441406 0.113281 8.378906 0.359375 7.265625 0.359375 C 5.421875 0.359375 4.035156 -0.148438 3.109375 -1.171875 C 2.191406 -2.191406 1.734375 -3.660156 1.734375 -5.578125 L 1.734375 -15.84375 L 7.703125 -15.84375 L 7.703125 -6.296875 C 7.703125 -5.617188 7.878906 -5.070312 8.234375 -4.65625 C 8.585938 -4.25 9.082031 -4.046875 9.71875 -4.046875 C 10.457031 -4.046875 11.054688 -4.285156 11.515625 -4.765625 C 11.972656 -5.242188 12.203125 -5.835938 12.203125 -6.546875 L 12.203125 -15.84375 L 18.1875 -15.84375 L 18.1875 0 Z M 13.296875 0" transform="translate(188.305 209.114)"/></g></g></g><g fill="#FFF"><g><g><path d="M 12.71875 -16.203125 C 14.5625 -16.203125 15.941406 -15.691406 16.859375 -14.671875 C 17.773438 -13.648438 18.234375 -12.179688 18.234375 -10.265625 L 18.234375 0 L 12.265625 0 L 12.265625 -9.546875 C 12.265625 -10.222656 12.085938 -10.765625 11.734375 -11.171875 C 11.390625 -11.585938 10.898438 -11.796875 10.265625 -11.796875 C 9.523438 -11.796875 8.921875 -11.550781 8.453125 -11.0625 C 7.992188 -10.582031 7.765625 -9.992188 7.765625 -9.296875 L 7.765625 0 L 1.796875 0 L 1.796875 -15.84375 L 6.6875 -15.84375 L 7.078125 -13.4375 C 7.703125 -14.28125 8.519531 -14.953125 9.53125 -15.453125 C 10.539062 -15.953125 11.601562 -16.203125 12.71875 -16.203125 Z M 12.71875 -16.203125" transform="translate(208.315 209.114)"/></g></g></g><g fill="#FFF"><g><g><path d="M 13.3125 0 L 12.8125 -2.25 C 11.644531 -0.507812 9.960938 0.359375 7.765625 0.359375 C 5.628906 0.359375 3.976562 -0.335938 2.8125 -1.734375 C 1.65625 -3.140625 1.078125 -5.210938 1.078125 -7.953125 C 1.078125 -10.671875 1.65625 -12.722656 2.8125 -14.109375 C 3.976562 -15.503906 5.628906 -16.203125 7.765625 -16.203125 C 9.585938 -16.203125 11.066406 -15.59375 12.203125 -14.375 L 12.203125 -21.75 L 18.1875 -21.75 L 18.1875 0 Z M 9.625 -11.796875 C 7.90625 -11.796875 7.046875 -10.765625 7.046875 -8.703125 L 7.046875 -7.109375 C 7.046875 -5.066406 7.90625 -4.046875 9.625 -4.046875 C 10.507812 -4.046875 11.171875 -4.351562 11.609375 -4.96875 C 12.046875 -5.59375 12.265625 -6.40625 12.265625 -7.40625 L 12.265625 -8.40625 C 12.265625 -9.40625 12.046875 -10.21875 11.609375 -10.84375 C 11.171875 -11.476562 10.507812 -11.796875 9.625 -11.796875 Z M 9.625 -11.796875" transform="translate(228.325 209.114)"/></g></g></g><g fill="#FFF"><g><g><path d="M 11.4375 -16.234375 C 11.894531 -16.234375 12.300781 -16.175781 12.65625 -16.0625 C 13.019531 -15.957031 13.203125 -15.894531 13.203125 -15.875 L 13.203125 -10.859375 L 11.28125 -10.859375 C 10.039062 -10.859375 9.144531 -10.535156 8.59375 -9.890625 C 8.039062 -9.253906 7.765625 -8.304688 7.765625 -7.046875 L 7.765625 0 L 1.796875 0 L 1.796875 -15.84375 L 6.6875 -15.84375 L 7.078125 -13.4375 C 7.441406 -14.351562 8.007812 -15.046875 8.78125 -15.515625 C 9.5625 -15.992188 10.445312 -16.234375 11.4375 -16.234375 Z M 11.4375 -16.234375" transform="translate(248.335 209.114)"/></g></g></g><g fill="#FFF"><g><g><path d="M 9.984375 -16.203125 C 12.890625 -16.203125 15.109375 -15.519531 16.640625 -14.15625 C 18.171875 -12.800781 18.9375 -10.722656 18.9375 -7.921875 L 18.9375 -6.90625 L 7.046875 -6.90625 C 7.046875 -5.757812 7.300781 -4.894531 7.8125 -4.3125 C 8.320312 -3.738281 9.128906 -3.453125 10.234375 -3.453125 C 11.234375 -3.453125 11.96875 -3.660156 12.4375 -4.078125 C 12.90625 -4.492188 13.140625 -5.054688 13.140625 -5.765625 L 18.9375 -5.765625 C 18.9375 -3.835938 18.203125 -2.332031 16.734375 -1.25 C 15.273438 -0.175781 13.144531 0.359375 10.34375 0.359375 C 7.40625 0.359375 5.125 -0.320312 3.5 -1.6875 C 1.882812 -3.0625 1.078125 -5.140625 1.078125 -7.921875 C 1.078125 -10.640625 1.863281 -12.695312 3.4375 -14.09375 C 5.019531 -15.5 7.203125 -16.203125 9.984375 -16.203125 Z M 10.234375 -12.390625 C 8.347656 -12.390625 7.296875 -11.5 7.078125 -9.71875 L 12.90625 -9.71875 C 12.90625 -10.539062 12.664062 -11.191406 12.1875 -11.671875 C 11.71875 -12.148438 11.066406 -12.390625 10.234375 -12.390625 Z M 10.234375 -12.390625" transform="translate(261.655 209.114)"/></g></g></g><g fill="#FFF"><g><g><path d="M 13.3125 0 L 12.8125 -2.25 C 11.644531 -0.507812 9.960938 0.359375 7.765625 0.359375 C 5.628906 0.359375 3.976562 -0.335938 2.8125 -1.734375 C 1.65625 -3.140625 1.078125 -5.210938 1.078125 -7.953125 C 1.078125 -10.671875 1.65625 -12.722656 2.8125 -14.109375 C 3.976562 -15.503906 5.628906 -16.203125 7.765625 -16.203125 C 9.585938 -16.203125 11.066406 -15.59375 12.203125 -14.375 L 12.203125 -21.75 L 18.1875 -21.75 L 18.1875 0 Z M 9.625 -11.796875 C 7.90625 -11.796875 7.046875 -10.765625 7.046875 -8.703125 L 7.046875 -7.109375 C 7.046875 -5.066406 7.90625 -4.046875 9.625 -4.046875 C 10.507812 -4.046875 11.171875 -4.351562 11.609375 -4.96875 C 12.046875 -5.59375 12.265625 -6.40625 12.265625 -7.40625 L 12.265625 -8.40625 C 12.265625 -9.40625 12.046875 -10.21875 11.609375 -10.84375 C 11.171875 -11.476562 10.507812 -11.796875 9.625 -11.796875 Z M 9.625 -11.796875" transform="translate(281.665 209.114)"/></g></g></g><g fill="#FFF"><g><g><path d="M 8.15625 0 L 0.421875 0 L 0.421875 -1.421875 L 5.625 -8.046875 L 0.9375 -8.046875 L 0.9375 -9.625 L 7.875 -9.625 L 7.875 -8.234375 L 2.65625 -1.578125 L 8.15625 -1.578125 Z M 8.15625 0" transform="translate(133.41 230.214)"/></g></g></g><g fill="#FFF"><g><g><path d="M 0.9375 0 L 0.9375 -9.625 L 8.515625 -9.625 L 8.515625 -8.078125 L 2.953125 -8.078125 L 2.953125 -5.65625 L 8.09375 -5.65625 L 8.09375 -4.09375 L 2.953125 -4.09375 L 2.953125 -1.5625 L 8.796875 -1.5625 L 8.796875 0 Z M 0.9375 0" transform="translate(143.833 230.214)"/></g></g></g><g fill="#FFF"><g><g><path d="M 7.546875 0 L 5.3125 -3.65625 L 2.953125 -3.65625 L 2.953125 0 L 0.9375 0 L 0.9375 -9.625 L 5.75 -9.625 C 6.894531 -9.625 7.78125 -9.378906 8.40625 -8.890625 C 9.03125 -8.398438 9.34375 -7.691406 9.34375 -6.765625 C 9.34375 -6.085938 9.148438 -5.503906 8.765625 -5.015625 C 8.390625 -4.523438 7.875 -4.203125 7.21875 -4.046875 L 9.828125 0 Z M 7.3125 -6.671875 C 7.3125 -7.597656 6.71875 -8.0625 5.53125 -8.0625 L 2.953125 -8.0625 L 2.953125 -5.21875 L 5.59375 -5.21875 C 6.15625 -5.21875 6.582031 -5.34375 6.875 -5.59375 C 7.164062 -5.851562 7.3125 -6.210938 7.3125 -6.671875 Z M 7.3125 -6.671875" transform="translate(155.042 230.214)"/></g></g></g><g fill="#FFF"><g><g><path d="M 10.296875 -4.859375 C 10.296875 -3.859375 10.097656 -2.976562 9.703125 -2.21875 C 9.304688 -1.457031 8.738281 -0.875 8 -0.46875 C 7.257812 -0.0625 6.398438 0.140625 5.421875 0.140625 C 3.910156 0.140625 2.722656 -0.300781 1.859375 -1.1875 C 1.003906 -2.082031 0.578125 -3.304688 0.578125 -4.859375 C 0.578125 -6.398438 1.003906 -7.601562 1.859375 -8.46875 C 2.710938 -9.34375 3.90625 -9.78125 5.4375 -9.78125 C 6.957031 -9.78125 8.144531 -9.34375 9 -8.46875 C 9.863281 -7.59375 10.296875 -6.390625 10.296875 -4.859375 Z M 8.25 -4.859375 C 8.25 -5.898438 8 -6.710938 7.5 -7.296875 C 7.007812 -7.890625 6.320312 -8.1875 5.4375 -8.1875 C 4.53125 -8.1875 3.832031 -7.894531 3.34375 -7.3125 C 2.851562 -6.726562 2.609375 -5.910156 2.609375 -4.859375 C 2.609375 -3.804688 2.859375 -2.972656 3.359375 -2.359375 C 3.859375 -1.753906 4.546875 -1.453125 5.421875 -1.453125 C 6.328125 -1.453125 7.023438 -1.75 7.515625 -2.34375 C 8.003906 -2.9375 8.25 -3.773438 8.25 -4.859375 Z M 8.25 -4.859375" transform="translate(167.022 230.214)"/></g></g></g><g fill="#FFF"><g><g><path d="M 5.28125 -8.078125 L 5.28125 0 L 3.265625 0 L 3.265625 -8.078125 L 0.15625 -8.078125 L 0.15625 -9.625 L 8.40625 -9.625 L 8.40625 -8.078125 Z M 5.28125 -8.078125" transform="translate(185.545 230.214)"/></g></g></g><g fill="#FFF"><g><g><path d="M 10.296875 -4.859375 C 10.296875 -3.859375 10.097656 -2.976562 9.703125 -2.21875 C 9.304688 -1.457031 8.738281 -0.875 8 -0.46875 C 7.257812 -0.0625 6.398438 0.140625 5.421875 0.140625 C 3.910156 0.140625 2.722656 -0.300781 1.859375 -1.1875 C 1.003906 -2.082031 0.578125 -3.304688 0.578125 -4.859375 C 0.578125 -6.398438 1.003906 -7.601562 1.859375 -8.46875 C 2.710938 -9.34375 3.90625 -9.78125 5.4375 -9.78125 C 6.957031 -9.78125 8.144531 -9.34375 9 -8.46875 C 9.863281 -7.59375 10.296875 -6.390625 10.296875 -4.859375 Z M 8.25 -4.859375 C 8.25 -5.898438 8 -6.710938 7.5 -7.296875 C 7.007812 -7.890625 6.320312 -8.1875 5.4375 -8.1875 C 4.53125 -8.1875 3.832031 -7.894531 3.34375 -7.3125 C 2.851562 -6.726562 2.609375 -5.910156 2.609375 -4.859375 C 2.609375 -3.804688 2.859375 -2.972656 3.359375 -2.359375 C 3.859375 -1.753906 4.546875 -1.453125 5.421875 -1.453125 C 6.328125 -1.453125 7.023438 -1.75 7.515625 -2.34375 C 8.003906 -2.9375 8.25 -3.773438 8.25 -4.859375 Z M 8.25 -4.859375" transform="translate(195.968 230.214)"/></g></g></g><g fill="#FFF"><g><g><path d="M 0.875 0 L 0.875 -1.421875 L 3.265625 -1.421875 L 3.265625 -8 L 0.953125 -6.5625 L 0.953125 -8.0625 L 3.375 -9.625 L 5.1875 -9.625 L 5.1875 -1.421875 L 7.390625 -1.421875 L 7.390625 0 Z M 0.875 0" transform="translate(214.491 230.214)"/></g></g></g><g fill="#FFF"><g><g><path d="M 7.21875 -4.8125 C 7.21875 -3.1875 6.9375 -1.953125 6.375 -1.109375 C 5.8125 -0.273438 4.972656 0.140625 3.859375 0.140625 C 1.648438 0.140625 0.546875 -1.507812 0.546875 -4.8125 C 0.546875 -5.96875 0.664062 -6.910156 0.90625 -7.640625 C 1.15625 -8.367188 1.519531 -8.90625 2 -9.25 C 2.488281 -9.601562 3.128906 -9.78125 3.921875 -9.78125 C 5.054688 -9.78125 5.890625 -9.363281 6.421875 -8.53125 C 6.953125 -7.707031 7.21875 -6.46875 7.21875 -4.8125 Z M 5.28125 -4.8125 C 5.28125 -5.707031 5.238281 -6.398438 5.15625 -6.890625 C 5.070312 -7.378906 4.929688 -7.726562 4.734375 -7.9375 C 4.546875 -8.15625 4.269531 -8.265625 3.90625 -8.265625 C 3.519531 -8.265625 3.226562 -8.15625 3.03125 -7.9375 C 2.832031 -7.726562 2.6875 -7.378906 2.59375 -6.890625 C 2.507812 -6.398438 2.46875 -5.707031 2.46875 -4.8125 C 2.46875 -3.9375 2.507812 -3.25 2.59375 -2.75 C 2.6875 -2.257812 2.832031 -1.90625 3.03125 -1.6875 C 3.226562 -1.476562 3.507812 -1.375 3.875 -1.375 C 4.238281 -1.375 4.519531 -1.484375 4.71875 -1.703125 C 4.914062 -1.929688 5.054688 -2.296875 5.140625 -2.796875 C 5.234375 -3.296875 5.28125 -3.96875 5.28125 -4.8125 Z M 5.28125 -4.8125" transform="translate(224.15 230.214)"/></g></g></g><g fill="#FFF"><g><g><path d="M 7.21875 -4.8125 C 7.21875 -3.1875 6.9375 -1.953125 6.375 -1.109375 C 5.8125 -0.273438 4.972656 0.140625 3.859375 0.140625 C 1.648438 0.140625 0.546875 -1.507812 0.546875 -4.8125 C 0.546875 -5.96875 0.664062 -6.910156 0.90625 -7.640625 C 1.15625 -8.367188 1.519531 -8.90625 2 -9.25 C 2.488281 -9.601562 3.128906 -9.78125 3.921875 -9.78125 C 5.054688 -9.78125 5.890625 -9.363281 6.421875 -8.53125 C 6.953125 -7.707031 7.21875 -6.46875 7.21875 -4.8125 Z M 5.28125 -4.8125 C 5.28125 -5.707031 5.238281 -6.398438 5.15625 -6.890625 C 5.070312 -7.378906 4.929688 -7.726562 4.734375 -7.9375 C 4.546875 -8.15625 4.269531 -8.265625 3.90625 -8.265625 C 3.519531 -8.265625 3.226562 -8.15625 3.03125 -7.9375 C 2.832031 -7.726562 2.6875 -7.378906 2.59375 -6.890625 C 2.507812 -6.398438 2.46875 -5.707031 2.46875 -4.8125 C 2.46875 -3.9375 2.507812 -3.25 2.59375 -2.75 C 2.6875 -2.257812 2.832031 -1.90625 3.03125 -1.6875 C 3.226562 -1.476562 3.507812 -1.375 3.875 -1.375 C 4.238281 -1.375 4.519531 -1.484375 4.71875 -1.703125 C 4.914062 -1.929688 5.054688 -2.296875 5.140625 -2.796875 C 5.234375 -3.296875 5.28125 -3.96875 5.28125 -4.8125 Z M 5.28125 -4.8125" transform="translate(233.807 230.214)"/></g></g></g></svg>