<svg xmlns="http://www.w3.org/2000/svg" width="375" viewBox="0 0 375 150" height="150" version="1.0"><g fill="#FFF"><g><g><path d="M 99.3125 -87.796875 C 99.59375 -87.796875 99.734375 -87.515625 99.734375 -86.953125 C 99.734375 -86.390625 99.59375 -86.109375 99.3125 -86.109375 C 95.46875 -86.109375 92.632812 -84.957031 90.8125 -82.65625 C 88.988281 -80.363281 88.078125 -76.785156 88.078125 -71.921875 L 88.078125 1.6875 C 88.078125 1.96875 87.84375 2.15625 87.375 2.25 C 86.90625 2.34375 86.578125 2.296875 86.390625 2.109375 L 20.9375 -76.28125 L 20.515625 -76.84375 L 20.515625 -15.734375 C 20.515625 -10.859375 21.398438 -7.296875 23.171875 -5.046875 C 24.953125 -2.804688 27.71875 -1.6875 31.46875 -1.6875 C 31.75 -1.6875 31.890625 -1.40625 31.890625 -0.84375 C 31.890625 -0.28125 31.75 0 31.46875 0 C 29.21875 0 27.4375 -0.046875 26.125 -0.140625 L 18.96875 -0.28125 L 11.515625 -0.140625 C 10.109375 -0.046875 8.097656 0 5.484375 0 C 5.296875 0 5.203125 -0.28125 5.203125 -0.84375 C 5.203125 -1.40625 5.296875 -1.6875 5.484375 -1.6875 C 9.503906 -1.6875 12.425781 -2.804688 14.25 -5.046875 C 16.082031 -7.296875 17 -10.859375 17 -15.734375 L 17 -80.484375 C 13.15625 -84.234375 9.269531 -86.109375 5.34375 -86.109375 C 5.0625 -86.109375 4.921875 -86.390625 4.921875 -86.953125 C 4.921875 -87.515625 5.0625 -87.796875 5.34375 -87.796875 L 10.53125 -87.65625 C 11.65625 -87.5625 13.25 -87.515625 15.3125 -87.515625 L 21.90625 -87.65625 C 22.65625 -87.75 23.640625 -87.796875 24.859375 -87.796875 C 25.609375 -87.796875 26.144531 -87.628906 26.46875 -87.296875 C 26.800781 -86.972656 27.34375 -86.25 28.09375 -85.125 C 29.21875 -83.4375 30.34375 -81.890625 31.46875 -80.484375 L 84.5625 -16.15625 L 84.5625 -71.921875 C 84.5625 -76.785156 83.71875 -80.363281 82.03125 -82.65625 C 80.34375 -84.957031 77.582031 -86.109375 73.75 -86.109375 C 73.5625 -86.109375 73.46875 -86.390625 73.46875 -86.953125 C 73.46875 -87.515625 73.5625 -87.796875 73.75 -87.796875 L 79.21875 -87.65625 C 82.21875 -87.46875 84.609375 -87.375 86.390625 -87.375 C 88.171875 -87.375 90.554688 -87.46875 93.546875 -87.65625 Z M 99.3125 -87.796875" transform="translate(86.012 109.188)"/></g></g></g><g fill="#FFF"><g><g><path d="M 57.734375 1.6875 C 47.335938 1.6875 38.300781 -0.367188 30.625 -4.484375 C 22.945312 -8.609375 17.070312 -14.160156 13 -21.140625 C 8.925781 -28.117188 6.890625 -35.820312 6.890625 -44.25 C 6.890625 -53.238281 9.207031 -61.148438 13.84375 -67.984375 C 18.476562 -74.816406 24.820312 -80.082031 32.875 -83.78125 C 40.925781 -87.488281 49.960938 -89.34375 59.984375 -89.34375 C 64.941406 -89.34375 69.597656 -88.894531 73.953125 -88 C 78.304688 -87.113281 81.890625 -85.828125 84.703125 -84.140625 C 85.453125 -83.765625 85.894531 -83.457031 86.03125 -83.21875 C 86.175781 -82.988281 86.296875 -82.265625 86.390625 -81.046875 L 88.21875 -64.046875 C 88.21875 -63.765625 87.957031 -63.578125 87.4375 -63.484375 C 86.925781 -63.390625 86.625 -63.484375 86.53125 -63.765625 C 84.46875 -70.609375 81 -76.179688 76.125 -80.484375 C 71.257812 -84.796875 64.800781 -86.953125 56.75 -86.953125 C 49.632812 -86.953125 43.195312 -85.3125 37.4375 -82.03125 C 31.675781 -78.757812 27.132812 -74.03125 23.8125 -67.84375 C 20.488281 -61.664062 18.828125 -54.503906 18.828125 -46.359375 C 18.828125 -38.210938 20.460938 -30.648438 23.734375 -23.671875 C 27.015625 -16.691406 31.863281 -11.070312 38.28125 -6.8125 C 44.695312 -2.550781 52.398438 -0.421875 61.390625 -0.421875 C 67.847656 -0.421875 72.363281 -1.660156 74.9375 -4.140625 C 77.507812 -6.617188 78.796875 -11.09375 78.796875 -17.5625 C 78.796875 -22.425781 78.492188 -25.816406 77.890625 -27.734375 C 77.285156 -29.660156 75.972656 -30.953125 73.953125 -31.609375 C 71.941406 -32.265625 68.363281 -32.59375 63.21875 -32.59375 C 62.65625 -32.59375 62.375 -32.96875 62.375 -33.71875 C 62.375 -34 62.441406 -34.253906 62.578125 -34.484375 C 62.722656 -34.722656 62.890625 -34.84375 63.078125 -34.84375 C 70.566406 -34.375 76.601562 -34.140625 81.1875 -34.140625 C 85.59375 -34.140625 90.273438 -34.28125 95.234375 -34.5625 C 95.609375 -34.5625 95.816406 -34.234375 95.859375 -33.578125 C 95.910156 -32.921875 95.703125 -32.59375 95.234375 -32.59375 C 92.984375 -32.6875 91.414062 -32.378906 90.53125 -31.671875 C 89.644531 -30.972656 89.0625 -29.546875 88.78125 -27.390625 C 88.5 -25.234375 88.359375 -21.488281 88.359375 -16.15625 C 88.359375 -11.9375 88.519531 -8.9375 88.84375 -7.15625 C 89.175781 -5.382812 89.34375 -4.265625 89.34375 -3.796875 C 89.34375 -3.234375 89.25 -2.859375 89.0625 -2.671875 C 88.875 -2.484375 88.453125 -2.296875 87.796875 -2.109375 C 76.179688 0.421875 66.160156 1.6875 57.734375 1.6875 Z M 57.734375 1.6875" transform="translate(188.268 109.188)"/></g></g></g></svg>