<svg xmlns="http://www.w3.org/2000/svg" width="150" viewBox="0 0 150 30" height="30" version="1.0"><g fill="#FFF"><g><g><path d="M 13.359375 -11.8125 C 13.390625 -11.8125 13.40625 -11.769531 13.40625 -11.6875 C 13.40625 -11.613281 13.390625 -11.578125 13.359375 -11.578125 C 12.835938 -11.578125 12.453125 -11.421875 12.203125 -11.109375 C 11.960938 -10.804688 11.84375 -10.328125 11.84375 -9.671875 L 11.84375 0.234375 C 11.84375 0.265625 11.8125 0.285156 11.75 0.296875 C 11.6875 0.316406 11.644531 0.3125 11.625 0.28125 L 2.8125 -10.25 L 2.765625 -10.328125 L 2.765625 -2.109375 C 2.765625 -1.460938 2.878906 -0.988281 3.109375 -0.6875 C 3.347656 -0.382812 3.722656 -0.234375 4.234375 -0.234375 C 4.265625 -0.234375 4.28125 -0.191406 4.28125 -0.109375 C 4.28125 -0.0351562 4.265625 0 4.234375 0 C 3.929688 0 3.691406 -0.00390625 3.515625 -0.015625 L 2.546875 -0.03125 L 1.546875 -0.015625 C 1.359375 -0.00390625 1.085938 0 0.734375 0 C 0.710938 0 0.703125 -0.0351562 0.703125 -0.109375 C 0.703125 -0.191406 0.710938 -0.234375 0.734375 -0.234375 C 1.273438 -0.234375 1.664062 -0.382812 1.90625 -0.6875 C 2.15625 -0.988281 2.28125 -1.460938 2.28125 -2.109375 L 2.28125 -10.828125 C 1.769531 -11.328125 1.25 -11.578125 0.71875 -11.578125 C 0.675781 -11.578125 0.65625 -11.613281 0.65625 -11.6875 C 0.65625 -11.769531 0.675781 -11.8125 0.71875 -11.8125 L 1.421875 -11.78125 C 1.566406 -11.769531 1.78125 -11.765625 2.0625 -11.765625 L 2.953125 -11.78125 C 3.046875 -11.800781 3.175781 -11.8125 3.34375 -11.8125 C 3.445312 -11.8125 3.519531 -11.785156 3.5625 -11.734375 C 3.601562 -11.691406 3.675781 -11.597656 3.78125 -11.453125 C 3.925781 -11.222656 4.078125 -11.015625 4.234375 -10.828125 L 11.375 -2.171875 L 11.375 -9.671875 C 11.375 -10.328125 11.257812 -10.804688 11.03125 -11.109375 C 10.800781 -11.421875 10.429688 -11.578125 9.921875 -11.578125 C 9.890625 -11.578125 9.875 -11.613281 9.875 -11.6875 C 9.875 -11.769531 9.890625 -11.8125 9.921875 -11.8125 L 10.65625 -11.78125 C 11.0625 -11.757812 11.382812 -11.75 11.625 -11.75 C 11.863281 -11.75 12.179688 -11.757812 12.578125 -11.78125 Z M 13.359375 -11.8125" transform="translate(6.443 19.325)"/></g></g></g><g fill="#FFF"><g><g><path d="M 2.59375 -9.609375 C 2.3125 -9.609375 2.09375 -9.679688 1.9375 -9.828125 C 1.78125 -9.984375 1.703125 -10.203125 1.703125 -10.484375 C 1.703125 -10.734375 1.78125 -10.929688 1.9375 -11.078125 C 2.09375 -11.234375 2.3125 -11.3125 2.59375 -11.3125 C 2.851562 -11.3125 3.054688 -11.234375 3.203125 -11.078125 C 3.359375 -10.929688 3.4375 -10.734375 3.4375 -10.484375 C 3.4375 -10.203125 3.359375 -9.984375 3.203125 -9.828125 C 3.054688 -9.679688 2.851562 -9.609375 2.59375 -9.609375 Z M 0.96875 0 C 0.925781 0 0.90625 -0.0351562 0.90625 -0.109375 C 0.90625 -0.191406 0.925781 -0.234375 0.96875 -0.234375 C 1.425781 -0.234375 1.726562 -0.316406 1.875 -0.484375 C 2.03125 -0.648438 2.109375 -1 2.109375 -1.53125 L 2.109375 -5.046875 C 2.109375 -5.484375 2.0625 -5.800781 1.96875 -6 C 1.882812 -6.207031 1.734375 -6.3125 1.515625 -6.3125 C 1.296875 -6.3125 1.019531 -6.222656 0.6875 -6.046875 L 0.65625 -6.046875 C 0.601562 -6.046875 0.566406 -6.078125 0.546875 -6.140625 C 0.523438 -6.203125 0.535156 -6.242188 0.578125 -6.265625 L 3.09375 -7.4375 L 3.171875 -7.46875 C 3.210938 -7.46875 3.253906 -7.445312 3.296875 -7.40625 C 3.335938 -7.363281 3.359375 -7.328125 3.359375 -7.296875 C 3.359375 -7.203125 3.351562 -6.945312 3.34375 -6.53125 C 3.332031 -6.113281 3.328125 -5.625 3.328125 -5.0625 L 3.328125 -1.53125 C 3.328125 -1.164062 3.351562 -0.890625 3.40625 -0.703125 C 3.46875 -0.523438 3.578125 -0.398438 3.734375 -0.328125 C 3.898438 -0.265625 4.148438 -0.234375 4.484375 -0.234375 C 4.515625 -0.234375 4.53125 -0.191406 4.53125 -0.109375 C 4.53125 -0.0351562 4.515625 0 4.484375 0 C 4.160156 0 3.910156 -0.00390625 3.734375 -0.015625 L 2.71875 -0.03125 L 1.65625 -0.015625 C 1.476562 -0.00390625 1.25 0 0.96875 0 Z M 0.96875 0" transform="translate(20.19 19.325)"/></g></g></g><g fill="#FFF"><g><g><path d="M 4.359375 0.234375 C 3.546875 0.234375 2.859375 0.0546875 2.296875 -0.296875 C 1.742188 -0.660156 1.332031 -1.125 1.0625 -1.6875 C 0.789062 -2.257812 0.65625 -2.863281 0.65625 -3.5 C 0.65625 -4.300781 0.863281 -5 1.28125 -5.59375 C 1.695312 -6.195312 2.222656 -6.660156 2.859375 -6.984375 C 3.503906 -7.304688 4.171875 -7.46875 4.859375 -7.46875 C 5.421875 -7.46875 5.929688 -7.351562 6.390625 -7.125 C 6.847656 -6.894531 7.078125 -6.609375 7.078125 -6.265625 C 7.078125 -6.078125 7.007812 -5.921875 6.875 -5.796875 C 6.75 -5.671875 6.578125 -5.609375 6.359375 -5.609375 C 5.960938 -5.609375 5.660156 -5.835938 5.453125 -6.296875 C 5.316406 -6.566406 5.15625 -6.765625 4.96875 -6.890625 C 4.789062 -7.015625 4.53125 -7.078125 4.1875 -7.078125 C 3.507812 -7.078125 2.984375 -6.800781 2.609375 -6.25 C 2.234375 -5.707031 2.046875 -4.984375 2.046875 -4.078125 C 2.046875 -3.023438 2.300781 -2.160156 2.8125 -1.484375 C 3.332031 -0.804688 4.117188 -0.46875 5.171875 -0.46875 C 5.890625 -0.46875 6.519531 -0.671875 7.0625 -1.078125 L 7.109375 -1.078125 C 7.140625 -1.078125 7.171875 -1.054688 7.203125 -1.015625 C 7.234375 -0.984375 7.234375 -0.953125 7.203125 -0.921875 C 6.753906 -0.523438 6.304688 -0.234375 5.859375 -0.046875 C 5.410156 0.140625 4.910156 0.234375 4.359375 0.234375 Z M 4.359375 0.234375" transform="translate(25.307 19.325)"/></g></g></g><g fill="#FFF"><g><g><path d="M 9.0625 -0.234375 C 9.101562 -0.234375 9.125 -0.191406 9.125 -0.109375 C 9.125 -0.0351562 9.101562 0 9.0625 0 C 8.75 0 8.503906 -0.00390625 8.328125 -0.015625 L 7.3125 -0.03125 L 6.25 -0.015625 C 6.070312 -0.00390625 5.835938 0 5.546875 0 C 5.515625 0 5.5 -0.0351562 5.5 -0.109375 C 5.5 -0.191406 5.515625 -0.234375 5.546875 -0.234375 C 6.015625 -0.234375 6.320312 -0.316406 6.46875 -0.484375 C 6.625 -0.648438 6.703125 -1 6.703125 -1.53125 L 6.703125 -4.484375 C 6.703125 -5.222656 6.5625 -5.769531 6.28125 -6.125 C 6.007812 -6.476562 5.582031 -6.65625 5 -6.65625 C 4.625 -6.65625 4.242188 -6.554688 3.859375 -6.359375 C 3.472656 -6.160156 3.125 -5.890625 2.8125 -5.546875 L 2.8125 -1.53125 C 2.8125 -1 2.882812 -0.648438 3.03125 -0.484375 C 3.1875 -0.316406 3.503906 -0.234375 3.984375 -0.234375 C 4.023438 -0.234375 4.046875 -0.191406 4.046875 -0.109375 C 4.046875 -0.0351562 4.023438 0 3.984375 0 C 3.671875 0 3.425781 -0.00390625 3.25 -0.015625 L 2.234375 -0.03125 L 1.171875 -0.015625 C 0.992188 -0.00390625 0.757812 0 0.46875 0 C 0.4375 0 0.421875 -0.0351562 0.421875 -0.109375 C 0.421875 -0.191406 0.4375 -0.234375 0.46875 -0.234375 C 0.9375 -0.234375 1.242188 -0.316406 1.390625 -0.484375 C 1.546875 -0.648438 1.625 -1 1.625 -1.53125 L 1.625 -11.265625 C 1.625 -11.710938 1.578125 -12.035156 1.484375 -12.234375 C 1.398438 -12.441406 1.25 -12.546875 1.03125 -12.546875 C 0.863281 -12.546875 0.585938 -12.457031 0.203125 -12.28125 L 0.1875 -12.28125 C 0.132812 -12.28125 0.09375 -12.3125 0.0625 -12.375 C 0.03125 -12.4375 0.0390625 -12.476562 0.09375 -12.5 L 2.5625 -13.703125 L 2.625 -13.703125 C 2.675781 -13.703125 2.71875 -13.679688 2.75 -13.640625 C 2.789062 -13.597656 2.8125 -13.5625 2.8125 -13.53125 L 2.8125 -5.890625 C 3.726562 -6.960938 4.695312 -7.5 5.71875 -7.5 C 6.414062 -7.5 6.953125 -7.296875 7.328125 -6.890625 C 7.703125 -6.492188 7.890625 -5.921875 7.890625 -5.171875 L 7.890625 -1.53125 C 7.890625 -1 7.960938 -0.648438 8.109375 -0.484375 C 8.265625 -0.316406 8.582031 -0.234375 9.0625 -0.234375 Z M 9.0625 -0.234375" transform="translate(33.105 19.325)"/></g></g></g><g fill="#FFF"><g><g><path d="M 4.375 0.25 C 3.632812 0.25 2.984375 0.0703125 2.421875 -0.28125 C 1.867188 -0.644531 1.4375 -1.128906 1.125 -1.734375 C 0.8125 -2.347656 0.65625 -3.015625 0.65625 -3.734375 C 0.65625 -4.554688 0.859375 -5.253906 1.265625 -5.828125 C 1.671875 -6.398438 2.179688 -6.828125 2.796875 -7.109375 C 3.421875 -7.390625 4.0625 -7.53125 4.71875 -7.53125 C 5.46875 -7.53125 6.117188 -7.347656 6.671875 -6.984375 C 7.234375 -6.617188 7.664062 -6.132812 7.96875 -5.53125 C 8.269531 -4.9375 8.421875 -4.304688 8.421875 -3.640625 C 8.421875 -2.859375 8.238281 -2.175781 7.875 -1.59375 C 7.507812 -1.007812 7.019531 -0.554688 6.40625 -0.234375 C 5.789062 0.0859375 5.113281 0.25 4.375 0.25 Z M 4.9375 -0.109375 C 5.582031 -0.109375 6.082031 -0.351562 6.4375 -0.84375 C 6.800781 -1.34375 6.984375 -2.09375 6.984375 -3.09375 C 6.984375 -3.882812 6.859375 -4.585938 6.609375 -5.203125 C 6.359375 -5.828125 6.007812 -6.304688 5.5625 -6.640625 C 5.125 -6.984375 4.632812 -7.15625 4.09375 -7.15625 C 3.457031 -7.15625 2.960938 -6.914062 2.609375 -6.4375 C 2.253906 -5.957031 2.078125 -5.257812 2.078125 -4.34375 C 2.078125 -3.5625 2.195312 -2.847656 2.4375 -2.203125 C 2.6875 -1.554688 3.023438 -1.046875 3.453125 -0.671875 C 3.878906 -0.296875 4.375 -0.109375 4.9375 -0.109375 Z M 4.9375 -0.109375" transform="translate(42.546 19.325)"/></g></g></g><g fill="#FFF"><g><g><path d="M 0.734375 0 C 0.703125 0 0.6875 -0.0351562 0.6875 -0.109375 C 0.6875 -0.191406 0.703125 -0.234375 0.734375 -0.234375 C 1.203125 -0.234375 1.507812 -0.316406 1.65625 -0.484375 C 1.8125 -0.648438 1.890625 -1 1.890625 -1.53125 L 1.890625 -11.265625 C 1.890625 -11.710938 1.847656 -12.035156 1.765625 -12.234375 C 1.679688 -12.441406 1.535156 -12.546875 1.328125 -12.546875 C 1.128906 -12.546875 0.84375 -12.457031 0.46875 -12.28125 L 0.453125 -12.28125 C 0.398438 -12.28125 0.359375 -12.3125 0.328125 -12.375 C 0.296875 -12.445312 0.304688 -12.488281 0.359375 -12.5 L 2.859375 -13.671875 L 2.921875 -13.703125 C 2.960938 -13.703125 3.007812 -13.679688 3.0625 -13.640625 C 3.113281 -13.597656 3.140625 -13.5625 3.140625 -13.53125 L 3.140625 -1.53125 C 3.140625 -1 3.210938 -0.648438 3.359375 -0.484375 C 3.503906 -0.316406 3.8125 -0.234375 4.28125 -0.234375 C 4.320312 -0.234375 4.34375 -0.191406 4.34375 -0.109375 C 4.34375 -0.0351562 4.320312 0 4.28125 0 C 3.976562 0 3.734375 -0.00390625 3.546875 -0.015625 L 2.515625 -0.03125 L 1.453125 -0.015625 C 1.273438 -0.00390625 1.035156 0 0.734375 0 Z M 0.734375 0" transform="translate(51.629 19.325)"/></g></g></g><g fill="#FFF"><g><g><path d="M 7.859375 -1.015625 C 7.910156 -1.015625 7.941406 -0.984375 7.953125 -0.921875 C 7.960938 -0.867188 7.941406 -0.832031 7.890625 -0.8125 L 5.953125 0.109375 C 5.898438 0.140625 5.84375 0.15625 5.78125 0.15625 C 5.613281 0.15625 5.460938 0.046875 5.328125 -0.171875 C 5.203125 -0.398438 5.113281 -0.703125 5.0625 -1.078125 L 4.125 -0.453125 C 3.820312 -0.234375 3.546875 -0.0820312 3.296875 0 C 3.046875 0.0820312 2.785156 0.125 2.515625 0.125 C 2.035156 0.125 1.660156 0.00390625 1.390625 -0.234375 C 1.128906 -0.484375 1 -0.796875 1 -1.171875 C 1 -1.578125 1.160156 -1.914062 1.484375 -2.1875 C 1.804688 -2.457031 2.316406 -2.722656 3.015625 -2.984375 L 5.046875 -3.71875 L 5.046875 -4.96875 C 5.046875 -5.726562 4.945312 -6.273438 4.75 -6.609375 C 4.550781 -6.953125 4.265625 -7.125 3.890625 -7.125 C 3.472656 -7.125 3.15625 -6.976562 2.9375 -6.6875 C 2.726562 -6.394531 2.59375 -6.066406 2.53125 -5.703125 C 2.457031 -5.148438 2.195312 -4.875 1.75 -4.875 C 1.53125 -4.875 1.363281 -4.929688 1.25 -5.046875 C 1.132812 -5.160156 1.078125 -5.296875 1.078125 -5.453125 C 1.078125 -5.773438 1.273438 -6.09375 1.671875 -6.40625 C 2.066406 -6.71875 2.546875 -6.972656 3.109375 -7.171875 C 3.671875 -7.378906 4.164062 -7.484375 4.59375 -7.484375 C 5.101562 -7.484375 5.5 -7.316406 5.78125 -6.984375 C 6.070312 -6.648438 6.21875 -6.164062 6.21875 -5.53125 L 6.21875 -2.046875 C 6.21875 -1.609375 6.273438 -1.289062 6.390625 -1.09375 C 6.515625 -0.894531 6.703125 -0.796875 6.953125 -0.796875 C 7.179688 -0.796875 7.472656 -0.867188 7.828125 -1.015625 Z M 5.046875 -1.359375 L 5.046875 -3.453125 L 3.453125 -2.8125 C 3.117188 -2.6875 2.863281 -2.53125 2.6875 -2.34375 C 2.507812 -2.164062 2.421875 -1.9375 2.421875 -1.65625 C 2.421875 -1.351562 2.515625 -1.101562 2.703125 -0.90625 C 2.898438 -0.71875 3.148438 -0.625 3.453125 -0.625 C 3.703125 -0.625 3.988281 -0.71875 4.3125 -0.90625 Z M 5.046875 -1.359375" transform="translate(56.538 19.325)"/></g></g></g><g fill="#FFF"><g><g><path d="M 1.96875 -6.203125 C 1.96875 -5.765625 2.101562 -5.414062 2.375 -5.15625 C 2.65625 -4.894531 3.070312 -4.617188 3.625 -4.328125 C 4.0625 -4.097656 4.40625 -3.898438 4.65625 -3.734375 C 4.914062 -3.578125 5.132812 -3.363281 5.3125 -3.09375 C 5.488281 -2.820312 5.578125 -2.492188 5.578125 -2.109375 C 5.578125 -1.472656 5.335938 -0.925781 4.859375 -0.46875 C 4.378906 -0.0195312 3.71875 0.203125 2.875 0.203125 C 2.539062 0.203125 2.226562 0.15625 1.9375 0.0625 C 1.644531 -0.0195312 1.34375 -0.160156 1.03125 -0.359375 C 0.957031 -0.410156 0.921875 -0.484375 0.921875 -0.578125 L 0.890625 -2.109375 C 0.890625 -2.148438 0.921875 -2.171875 0.984375 -2.171875 C 1.054688 -2.179688 1.097656 -2.171875 1.109375 -2.140625 C 1.335938 -1.503906 1.648438 -1.015625 2.046875 -0.671875 C 2.453125 -0.328125 2.910156 -0.15625 3.421875 -0.15625 C 3.785156 -0.15625 4.066406 -0.242188 4.265625 -0.421875 C 4.472656 -0.597656 4.578125 -0.859375 4.578125 -1.203125 C 4.578125 -1.710938 4.429688 -2.101562 4.140625 -2.375 C 3.859375 -2.644531 3.4375 -2.925781 2.875 -3.21875 C 2.445312 -3.425781 2.113281 -3.613281 1.875 -3.78125 C 1.632812 -3.945312 1.425781 -4.160156 1.25 -4.421875 C 1.082031 -4.679688 1 -5.007812 1 -5.40625 C 1 -6.09375 1.253906 -6.613281 1.765625 -6.96875 C 2.273438 -7.332031 2.890625 -7.515625 3.609375 -7.515625 C 4.109375 -7.515625 4.582031 -7.421875 5.03125 -7.234375 C 5.132812 -7.179688 5.1875 -7.113281 5.1875 -7.03125 C 5.1875 -6.757812 5.179688 -6.550781 5.171875 -6.40625 L 5.15625 -5.59375 C 5.15625 -5.5625 5.117188 -5.546875 5.046875 -5.546875 C 4.972656 -5.546875 4.9375 -5.5625 4.9375 -5.59375 C 4.9375 -5.976562 4.722656 -6.332031 4.296875 -6.65625 C 3.878906 -6.976562 3.429688 -7.140625 2.953125 -7.140625 C 2.648438 -7.140625 2.410156 -7.0625 2.234375 -6.90625 C 2.054688 -6.757812 1.96875 -6.523438 1.96875 -6.203125 Z M 1.96875 -6.203125" transform="translate(64.469 19.325)"/></g></g></g><g fill="#FFF"><g><g><path d="M 7.765625 0.234375 C 6.367188 0.234375 5.148438 -0.0390625 4.109375 -0.59375 C 3.078125 -1.15625 2.285156 -1.90625 1.734375 -2.84375 C 1.191406 -3.78125 0.921875 -4.816406 0.921875 -5.953125 C 0.921875 -7.160156 1.234375 -8.222656 1.859375 -9.140625 C 2.484375 -10.054688 3.335938 -10.765625 4.421875 -11.265625 C 5.503906 -11.765625 6.71875 -12.015625 8.0625 -12.015625 C 8.726562 -12.015625 9.351562 -11.953125 9.9375 -11.828125 C 10.53125 -11.710938 11.015625 -11.539062 11.390625 -11.3125 C 11.492188 -11.257812 11.550781 -11.21875 11.5625 -11.1875 C 11.582031 -11.15625 11.601562 -11.0625 11.625 -10.90625 L 11.859375 -8.609375 C 11.859375 -8.578125 11.820312 -8.550781 11.75 -8.53125 C 11.6875 -8.519531 11.648438 -8.535156 11.640625 -8.578125 C 11.359375 -9.492188 10.890625 -10.238281 10.234375 -10.8125 C 9.578125 -11.394531 8.707031 -11.6875 7.625 -11.6875 C 6.675781 -11.6875 5.8125 -11.46875 5.03125 -11.03125 C 4.257812 -10.59375 3.648438 -9.957031 3.203125 -9.125 C 2.753906 -8.289062 2.53125 -7.328125 2.53125 -6.234375 C 2.53125 -5.140625 2.75 -4.125 3.1875 -3.1875 C 3.632812 -2.25 4.285156 -1.492188 5.140625 -0.921875 C 6.003906 -0.347656 7.039062 -0.0625 8.25 -0.0625 C 9.125 -0.0625 9.734375 -0.226562 10.078125 -0.5625 C 10.421875 -0.894531 10.59375 -1.492188 10.59375 -2.359375 C 10.59375 -3.015625 10.550781 -3.472656 10.46875 -3.734375 C 10.394531 -3.992188 10.222656 -4.164062 9.953125 -4.25 C 9.679688 -4.332031 9.195312 -4.375 8.5 -4.375 C 8.425781 -4.375 8.390625 -4.425781 8.390625 -4.53125 C 8.390625 -4.570312 8.394531 -4.609375 8.40625 -4.640625 C 8.425781 -4.671875 8.453125 -4.6875 8.484375 -4.6875 C 9.492188 -4.625 10.304688 -4.59375 10.921875 -4.59375 C 11.515625 -4.59375 12.144531 -4.609375 12.8125 -4.640625 C 12.863281 -4.640625 12.890625 -4.59375 12.890625 -4.5 C 12.898438 -4.414062 12.875 -4.375 12.8125 -4.375 C 12.507812 -4.394531 12.296875 -4.359375 12.171875 -4.265625 C 12.054688 -4.171875 11.976562 -3.976562 11.9375 -3.6875 C 11.894531 -3.394531 11.875 -2.890625 11.875 -2.171875 C 11.875 -1.609375 11.894531 -1.207031 11.9375 -0.96875 C 11.988281 -0.726562 12.015625 -0.578125 12.015625 -0.515625 C 12.015625 -0.429688 12 -0.378906 11.96875 -0.359375 C 11.945312 -0.335938 11.894531 -0.3125 11.8125 -0.28125 C 10.25 0.0625 8.898438 0.234375 7.765625 0.234375 Z M 7.765625 0.234375" transform="translate(75.27 19.325)"/></g></g></g><g fill="#FFF"><g><g><path d="M 9.234375 -1.109375 C 9.285156 -1.109375 9.320312 -1.078125 9.34375 -1.015625 C 9.363281 -0.953125 9.351562 -0.910156 9.3125 -0.890625 L 7.03125 0.1875 L 6.953125 0.203125 C 6.828125 0.203125 6.707031 0.0507812 6.59375 -0.25 C 6.476562 -0.550781 6.421875 -0.941406 6.421875 -1.421875 C 5.472656 -0.359375 4.488281 0.171875 3.46875 0.171875 C 2.832031 0.171875 2.332031 -0.0234375 1.96875 -0.421875 C 1.601562 -0.828125 1.421875 -1.40625 1.421875 -2.15625 L 1.421875 -5.046875 C 1.421875 -5.523438 1.378906 -5.867188 1.296875 -6.078125 C 1.210938 -6.296875 1.070312 -6.40625 0.875 -6.40625 C 0.71875 -6.40625 0.507812 -6.347656 0.25 -6.234375 L 0.203125 -6.234375 C 0.171875 -6.234375 0.144531 -6.265625 0.125 -6.328125 C 0.101562 -6.390625 0.113281 -6.425781 0.15625 -6.4375 L 2.328125 -7.4375 L 2.40625 -7.46875 C 2.4375 -7.46875 2.476562 -7.445312 2.53125 -7.40625 C 2.582031 -7.363281 2.609375 -7.328125 2.609375 -7.296875 L 2.609375 -2.859375 C 2.609375 -1.410156 3.132812 -0.6875 4.1875 -0.6875 C 4.570312 -0.6875 4.957031 -0.78125 5.34375 -0.96875 C 5.738281 -1.15625 6.097656 -1.414062 6.421875 -1.75 L 6.421875 -5.046875 C 6.421875 -5.523438 6.375 -5.867188 6.28125 -6.078125 C 6.195312 -6.296875 6.054688 -6.40625 5.859375 -6.40625 C 5.703125 -6.40625 5.492188 -6.347656 5.234375 -6.234375 L 5.1875 -6.234375 C 5.15625 -6.234375 5.128906 -6.265625 5.109375 -6.328125 C 5.097656 -6.390625 5.113281 -6.425781 5.15625 -6.4375 L 7.328125 -7.4375 L 7.40625 -7.46875 C 7.445312 -7.46875 7.488281 -7.445312 7.53125 -7.40625 C 7.570312 -7.363281 7.59375 -7.328125 7.59375 -7.296875 L 7.59375 -2.0625 C 7.59375 -1.632812 7.640625 -1.320312 7.734375 -1.125 C 7.835938 -0.9375 8.003906 -0.84375 8.234375 -0.84375 C 8.421875 -0.84375 8.742188 -0.925781 9.203125 -1.09375 Z M 9.234375 -1.109375" transform="translate(88.808 19.325)"/></g></g></g><g fill="#FFF"><g><g><path d="M 2.59375 -9.609375 C 2.3125 -9.609375 2.09375 -9.679688 1.9375 -9.828125 C 1.78125 -9.984375 1.703125 -10.203125 1.703125 -10.484375 C 1.703125 -10.734375 1.78125 -10.929688 1.9375 -11.078125 C 2.09375 -11.234375 2.3125 -11.3125 2.59375 -11.3125 C 2.851562 -11.3125 3.054688 -11.234375 3.203125 -11.078125 C 3.359375 -10.929688 3.4375 -10.734375 3.4375 -10.484375 C 3.4375 -10.203125 3.359375 -9.984375 3.203125 -9.828125 C 3.054688 -9.679688 2.851562 -9.609375 2.59375 -9.609375 Z M 0.96875 0 C 0.925781 0 0.90625 -0.0351562 0.90625 -0.109375 C 0.90625 -0.191406 0.925781 -0.234375 0.96875 -0.234375 C 1.425781 -0.234375 1.726562 -0.316406 1.875 -0.484375 C 2.03125 -0.648438 2.109375 -1 2.109375 -1.53125 L 2.109375 -5.046875 C 2.109375 -5.484375 2.0625 -5.800781 1.96875 -6 C 1.882812 -6.207031 1.734375 -6.3125 1.515625 -6.3125 C 1.296875 -6.3125 1.019531 -6.222656 0.6875 -6.046875 L 0.65625 -6.046875 C 0.601562 -6.046875 0.566406 -6.078125 0.546875 -6.140625 C 0.523438 -6.203125 0.535156 -6.242188 0.578125 -6.265625 L 3.09375 -7.4375 L 3.171875 -7.46875 C 3.210938 -7.46875 3.253906 -7.445312 3.296875 -7.40625 C 3.335938 -7.363281 3.359375 -7.328125 3.359375 -7.296875 C 3.359375 -7.203125 3.351562 -6.945312 3.34375 -6.53125 C 3.332031 -6.113281 3.328125 -5.625 3.328125 -5.0625 L 3.328125 -1.53125 C 3.328125 -1.164062 3.351562 -0.890625 3.40625 -0.703125 C 3.46875 -0.523438 3.578125 -0.398438 3.734375 -0.328125 C 3.898438 -0.265625 4.148438 -0.234375 4.484375 -0.234375 C 4.515625 -0.234375 4.53125 -0.191406 4.53125 -0.109375 C 4.53125 -0.0351562 4.515625 0 4.484375 0 C 4.160156 0 3.910156 -0.00390625 3.734375 -0.015625 L 2.71875 -0.03125 L 1.65625 -0.015625 C 1.476562 -0.00390625 1.25 0 0.96875 0 Z M 0.96875 0" transform="translate(98.154 19.325)"/></g></g></g><g fill="#FFF"><g><g><path d="M 9.40625 -0.234375 C 9.445312 -0.234375 9.46875 -0.191406 9.46875 -0.109375 C 9.46875 -0.0351562 9.445312 0 9.40625 0 C 9.09375 0 8.847656 -0.00390625 8.671875 -0.015625 L 7.65625 -0.03125 L 6.625 -0.015625 C 6.445312 -0.00390625 6.207031 0 5.90625 0 C 5.875 0 5.859375 -0.0351562 5.859375 -0.109375 C 5.859375 -0.191406 5.875 -0.234375 5.90625 -0.234375 C 6.238281 -0.234375 6.484375 -0.265625 6.640625 -0.328125 C 6.796875 -0.398438 6.898438 -0.523438 6.953125 -0.703125 C 7.015625 -0.890625 7.046875 -1.164062 7.046875 -1.53125 L 7.046875 -4.53125 C 7.046875 -5.257812 6.910156 -5.796875 6.640625 -6.140625 C 6.367188 -6.492188 5.9375 -6.671875 5.34375 -6.671875 C 4.976562 -6.671875 4.601562 -6.578125 4.21875 -6.390625 C 3.832031 -6.203125 3.484375 -5.9375 3.171875 -5.59375 L 3.171875 -1.53125 C 3.171875 -1.164062 3.195312 -0.890625 3.25 -0.703125 C 3.3125 -0.523438 3.421875 -0.398438 3.578125 -0.328125 C 3.742188 -0.265625 3.992188 -0.234375 4.328125 -0.234375 C 4.359375 -0.234375 4.375 -0.191406 4.375 -0.109375 C 4.375 -0.0351562 4.359375 0 4.328125 0 C 4.015625 0 3.769531 -0.00390625 3.59375 -0.015625 L 2.5625 -0.03125 L 1.546875 -0.015625 C 1.367188 -0.00390625 1.128906 0 0.828125 0 C 0.796875 0 0.78125 -0.0351562 0.78125 -0.109375 C 0.78125 -0.191406 0.796875 -0.234375 0.828125 -0.234375 C 1.160156 -0.234375 1.40625 -0.265625 1.5625 -0.328125 C 1.71875 -0.398438 1.820312 -0.523438 1.875 -0.703125 C 1.9375 -0.890625 1.96875 -1.164062 1.96875 -1.53125 L 1.96875 -5.234375 C 1.96875 -5.648438 1.914062 -5.953125 1.8125 -6.140625 C 1.707031 -6.328125 1.546875 -6.421875 1.328125 -6.421875 C 1.128906 -6.421875 0.796875 -6.328125 0.328125 -6.140625 L 0.296875 -6.140625 C 0.253906 -6.140625 0.21875 -6.164062 0.1875 -6.21875 C 0.164062 -6.28125 0.179688 -6.320312 0.234375 -6.34375 L 2.5 -7.4375 L 2.609375 -7.46875 C 2.734375 -7.46875 2.851562 -7.320312 2.96875 -7.03125 C 3.09375 -6.75 3.160156 -6.375 3.171875 -5.90625 C 4.085938 -6.988281 5.050781 -7.53125 6.0625 -7.53125 C 6.757812 -7.53125 7.296875 -7.328125 7.671875 -6.921875 C 8.054688 -6.523438 8.25 -5.957031 8.25 -5.21875 L 8.25 -1.53125 C 8.25 -1.164062 8.273438 -0.890625 8.328125 -0.703125 C 8.390625 -0.523438 8.503906 -0.398438 8.671875 -0.328125 C 8.835938 -0.265625 9.082031 -0.234375 9.40625 -0.234375 Z M 9.40625 -0.234375" transform="translate(103.272 19.325)"/></g></g></g><g fill="#FFF"><g><g><path d="M 5.9375 -1.03125 C 5.96875 -1.03125 5.992188 -1.003906 6.015625 -0.953125 C 6.046875 -0.898438 6.039062 -0.859375 6 -0.828125 C 5.539062 -0.453125 5.117188 -0.179688 4.734375 -0.015625 C 4.359375 0.148438 3.957031 0.234375 3.53125 0.234375 C 3 0.234375 2.5625 0.109375 2.21875 -0.140625 C 1.875 -0.390625 1.703125 -0.796875 1.703125 -1.359375 L 1.703125 -5.765625 C 1.703125 -6.066406 1.675781 -6.289062 1.625 -6.4375 C 1.570312 -6.582031 1.476562 -6.675781 1.34375 -6.71875 C 1.21875 -6.769531 1.007812 -6.796875 0.71875 -6.796875 C 0.675781 -6.796875 0.65625 -6.835938 0.65625 -6.921875 C 0.65625 -7.015625 0.675781 -7.0625 0.71875 -7.0625 C 1.25 -7.070312 1.679688 -7.203125 2.015625 -7.453125 C 2.347656 -7.710938 2.550781 -8.066406 2.625 -8.515625 C 2.632812 -8.554688 2.679688 -8.578125 2.765625 -8.578125 C 2.859375 -8.578125 2.90625 -8.554688 2.90625 -8.515625 L 2.90625 -7.078125 C 3.507812 -7.097656 4.375 -7.160156 5.5 -7.265625 C 5.53125 -7.265625 5.554688 -7.222656 5.578125 -7.140625 C 5.609375 -7.054688 5.625 -6.957031 5.625 -6.84375 C 5.625 -6.726562 5.601562 -6.613281 5.5625 -6.5 C 5.53125 -6.394531 5.488281 -6.347656 5.4375 -6.359375 C 4.726562 -6.523438 3.882812 -6.625 2.90625 -6.65625 L 2.90625 -2 C 2.90625 -0.988281 3.394531 -0.484375 4.375 -0.484375 C 4.90625 -0.484375 5.410156 -0.660156 5.890625 -1.015625 Z M 5.9375 -1.03125" transform="translate(113.071 19.325)"/></g></g></g><g fill="#FFF"><g><g><path d="M 9.0625 -0.234375 C 9.101562 -0.234375 9.125 -0.191406 9.125 -0.109375 C 9.125 -0.0351562 9.101562 0 9.0625 0 C 8.75 0 8.503906 -0.00390625 8.328125 -0.015625 L 7.3125 -0.03125 L 6.25 -0.015625 C 6.070312 -0.00390625 5.835938 0 5.546875 0 C 5.515625 0 5.5 -0.0351562 5.5 -0.109375 C 5.5 -0.191406 5.515625 -0.234375 5.546875 -0.234375 C 6.015625 -0.234375 6.320312 -0.316406 6.46875 -0.484375 C 6.625 -0.648438 6.703125 -1 6.703125 -1.53125 L 6.703125 -4.484375 C 6.703125 -5.222656 6.5625 -5.769531 6.28125 -6.125 C 6.007812 -6.476562 5.582031 -6.65625 5 -6.65625 C 4.625 -6.65625 4.242188 -6.554688 3.859375 -6.359375 C 3.472656 -6.160156 3.125 -5.890625 2.8125 -5.546875 L 2.8125 -1.53125 C 2.8125 -1 2.882812 -0.648438 3.03125 -0.484375 C 3.1875 -0.316406 3.503906 -0.234375 3.984375 -0.234375 C 4.023438 -0.234375 4.046875 -0.191406 4.046875 -0.109375 C 4.046875 -0.0351562 4.023438 0 3.984375 0 C 3.671875 0 3.425781 -0.00390625 3.25 -0.015625 L 2.234375 -0.03125 L 1.171875 -0.015625 C 0.992188 -0.00390625 0.757812 0 0.46875 0 C 0.4375 0 0.421875 -0.0351562 0.421875 -0.109375 C 0.421875 -0.191406 0.4375 -0.234375 0.46875 -0.234375 C 0.9375 -0.234375 1.242188 -0.316406 1.390625 -0.484375 C 1.546875 -0.648438 1.625 -1 1.625 -1.53125 L 1.625 -11.265625 C 1.625 -11.710938 1.578125 -12.035156 1.484375 -12.234375 C 1.398438 -12.441406 1.25 -12.546875 1.03125 -12.546875 C 0.863281 -12.546875 0.585938 -12.457031 0.203125 -12.28125 L 0.1875 -12.28125 C 0.132812 -12.28125 0.09375 -12.3125 0.0625 -12.375 C 0.03125 -12.4375 0.0390625 -12.476562 0.09375 -12.5 L 2.5625 -13.703125 L 2.625 -13.703125 C 2.675781 -13.703125 2.71875 -13.679688 2.75 -13.640625 C 2.789062 -13.597656 2.8125 -13.5625 2.8125 -13.53125 L 2.8125 -5.890625 C 3.726562 -6.960938 4.695312 -7.5 5.71875 -7.5 C 6.414062 -7.5 6.953125 -7.296875 7.328125 -6.890625 C 7.703125 -6.492188 7.890625 -5.921875 7.890625 -5.171875 L 7.890625 -1.53125 C 7.890625 -1 7.960938 -0.648438 8.109375 -0.484375 C 8.265625 -0.316406 8.582031 -0.234375 9.0625 -0.234375 Z M 9.0625 -0.234375" transform="translate(119.454 19.325)"/></g></g></g><g fill="#FFF"><g><g><path d="M 6.875 -1.09375 C 6.914062 -1.09375 6.953125 -1.070312 6.984375 -1.03125 C 7.015625 -0.988281 7.015625 -0.945312 6.984375 -0.90625 C 6.140625 -0.144531 5.207031 0.234375 4.1875 0.234375 C 3.445312 0.234375 2.8125 0.0664062 2.28125 -0.265625 C 1.757812 -0.609375 1.359375 -1.054688 1.078125 -1.609375 C 0.796875 -2.171875 0.65625 -2.773438 0.65625 -3.421875 C 0.65625 -4.160156 0.832031 -4.835938 1.1875 -5.453125 C 1.550781 -6.078125 2.039062 -6.566406 2.65625 -6.921875 C 3.28125 -7.285156 3.960938 -7.46875 4.703125 -7.46875 C 5.429688 -7.46875 5.988281 -7.28125 6.375 -6.90625 C 6.757812 -6.53125 6.953125 -6 6.953125 -5.3125 C 6.953125 -4.96875 6.875 -4.796875 6.71875 -4.796875 L 2.0625 -4.78125 C 2.03125 -4.5 2.015625 -4.285156 2.015625 -4.140625 C 2.015625 -3.046875 2.273438 -2.160156 2.796875 -1.484375 C 3.316406 -0.816406 4.046875 -0.484375 4.984375 -0.484375 C 5.359375 -0.484375 5.675781 -0.53125 5.9375 -0.625 C 6.195312 -0.726562 6.503906 -0.882812 6.859375 -1.09375 Z M 4.0625 -7.078125 C 3.53125 -7.078125 3.09375 -6.894531 2.75 -6.53125 C 2.414062 -6.175781 2.195312 -5.679688 2.09375 -5.046875 L 5.53125 -5.125 C 5.53125 -5.757812 5.398438 -6.242188 5.140625 -6.578125 C 4.890625 -6.910156 4.53125 -7.078125 4.0625 -7.078125 Z M 4.0625 -7.078125" transform="translate(128.895 19.325)"/></g></g></g><g fill="#FFF"><g><g><path d="M 5.265625 -7.46875 C 5.546875 -7.46875 5.8125 -7.382812 6.0625 -7.21875 C 6.320312 -7.050781 6.453125 -6.851562 6.453125 -6.625 C 6.453125 -6.445312 6.394531 -6.296875 6.28125 -6.171875 C 6.164062 -6.054688 6.003906 -6 5.796875 -6 C 5.671875 -6 5.5625 -6.023438 5.46875 -6.078125 C 5.382812 -6.128906 5.285156 -6.207031 5.171875 -6.3125 C 5.046875 -6.40625 4.9375 -6.476562 4.84375 -6.53125 C 4.75 -6.582031 4.632812 -6.609375 4.5 -6.609375 C 4.332031 -6.609375 4.160156 -6.546875 3.984375 -6.421875 C 3.816406 -6.296875 3.546875 -6.019531 3.171875 -5.59375 L 3.171875 -1.53125 C 3.171875 -1.164062 3.21875 -0.890625 3.3125 -0.703125 C 3.40625 -0.523438 3.578125 -0.398438 3.828125 -0.328125 C 4.085938 -0.265625 4.472656 -0.234375 4.984375 -0.234375 C 5.023438 -0.234375 5.046875 -0.191406 5.046875 -0.109375 C 5.046875 -0.0351562 5.023438 0 4.984375 0 C 4.566406 0 4.234375 -0.00390625 3.984375 -0.015625 L 2.5625 -0.03125 L 1.546875 -0.015625 C 1.367188 -0.00390625 1.128906 0 0.828125 0 C 0.796875 0 0.78125 -0.0351562 0.78125 -0.109375 C 0.78125 -0.191406 0.796875 -0.234375 0.828125 -0.234375 C 1.160156 -0.234375 1.40625 -0.265625 1.5625 -0.328125 C 1.71875 -0.398438 1.820312 -0.523438 1.875 -0.703125 C 1.9375 -0.890625 1.96875 -1.164062 1.96875 -1.53125 L 1.96875 -5.234375 C 1.96875 -5.648438 1.914062 -5.953125 1.8125 -6.140625 C 1.707031 -6.328125 1.546875 -6.421875 1.328125 -6.421875 C 1.128906 -6.421875 0.796875 -6.328125 0.328125 -6.140625 L 0.296875 -6.140625 C 0.253906 -6.140625 0.21875 -6.164062 0.1875 -6.21875 C 0.164062 -6.28125 0.179688 -6.320312 0.234375 -6.34375 L 2.5 -7.4375 L 2.609375 -7.46875 C 2.734375 -7.46875 2.851562 -7.320312 2.96875 -7.03125 C 3.09375 -6.75 3.160156 -6.382812 3.171875 -5.9375 C 3.691406 -6.519531 4.101562 -6.921875 4.40625 -7.140625 C 4.707031 -7.359375 4.992188 -7.46875 5.265625 -7.46875 Z M 5.265625 -7.46875" transform="translate(136.618 19.325)"/></g></g></g></svg>